<svg xmlns="http://www.w3.org/2000/svg" version="1.1" xmlns:xlink="http://www.w3.org/1999/xlink" viewBox="0 0 200 200"><rect width="200" height="200" fill="url('#gradient')"></rect><defs><linearGradient id="gradient" gradientTransform="rotate(45 0.5 0.5)"><stop offset="0%" stop-color="#000000"></stop><stop offset="100%" stop-color="#000000"></stop></linearGradient></defs><g><g fill="#ffffff" transform="matrix(11.50561797752809,0,0,11.50561797752809,-3.2625284690535494,181.80920303537604)" stroke="#ffffff" stroke-width="0"><path d="M2.97-3.19L2.97-3.19Q3.75-3.19 4.27-2.73Q4.79-2.27 4.79-1.54Q4.79-0.82 4.27-0.36Q3.75 0.11 2.97 0.11L2.97 0.11Q2.18 0.11 1.67-0.36Q1.15-0.83 1.15-1.54Q1.15-2.26 1.67-2.72Q2.18-3.19 2.97-3.19ZM2.97-10.99L2.97-10.99Q3.75-10.99 4.27-10.52Q4.79-10.06 4.79-9.34Q4.79-8.61 4.27-8.15Q3.75-7.69 2.97-7.69L2.97-7.69Q2.18-7.69 1.67-8.15Q1.15-8.62 1.15-9.34Q1.15-10.05 1.67-10.52Q2.18-10.99 2.97-10.99ZM9.88-6.04L9.88-8.49L11.44-8.49Q13.28-8.49 13.28-10.29L13.28-10.29Q13.28-11.00 12.84-11.44Q12.40-11.88 11.60-11.88L11.60-11.88Q10.95-11.88 10.46-11.50Q9.98-11.12 9.98-10.56L9.98-10.56L6.69-10.56Q6.69-11.68 7.31-12.56Q7.94-13.44 9.05-13.93Q10.16-14.42 11.48-14.42L11.48-14.42Q13.86-14.42 15.21-13.34Q16.57-12.26 16.57-10.36L16.57-10.36Q16.57-9.44 16.01-8.63Q15.45-7.81 14.38-7.30L14.38-7.30Q15.51-6.89 16.15-6.06Q16.80-5.22 16.80-3.99L16.80-3.99Q16.80-2.09 15.33-0.95Q13.87 0.20 11.48 0.20L11.48 0.20Q10.09 0.20 8.89-0.34Q7.70-0.87 7.08-1.81Q6.46-2.75 6.46-3.96L6.46-3.96L9.78-3.96Q9.78-3.30 10.30-2.82Q10.83-2.34 11.60-2.34L11.60-2.34Q12.47-2.34 12.99-2.83Q13.51-3.31 13.51-4.06L13.51-4.06Q13.51-5.14 12.97-5.59Q12.43-6.04 11.48-6.04L11.48-6.04L9.88-6.04Z"></path></g></g></svg>